<?xml version="1.0" encoding="utf-8"?>
<!-- Generator: Adobe Illustrator 25.2.1, SVG Export Plug-In . SVG Version: 6.00 Build 0)  -->
<svg version="1.1" id="Layer_1" xmlns="http://www.w3.org/2000/svg" xmlns:xlink="http://www.w3.org/1999/xlink" x="0px" y="0px"
	 viewBox="0 0 256 256" style="enable-background:new 0 0 256 256;" xml:space="preserve">
<style type="text/css">
	.st0{fill:#F9FBFC;}
	.st1{fill:#326DB4;}
	.st2{fill:url(#SVGID_1_);}
	.st3{fill:url(#SVGID_2_);}
	.st4{fill:url(#SVGID_3_);}
	.st5{fill:#D1D3D4;}
</style>
<rect y="0" class="st0" width="256" height="256"/>
<g>
	<g>
		<path class="st1" d="M209.42,87.67c0-0.71,0.09-1.4,0.28-2.06c0.18-0.66,0.45-1.28,0.78-1.85c0.34-0.57,0.74-1.1,1.21-1.57
			c0.47-0.47,1-0.88,1.57-1.21c0.57-0.34,1.19-0.59,1.85-0.78c0.66-0.18,1.34-0.28,2.06-0.28c0.71,0,1.4,0.09,2.06,0.28
			c0.66,0.19,1.28,0.45,1.85,0.78c0.57,0.34,1.1,0.74,1.57,1.21c0.47,0.47,0.88,1,1.21,1.57c0.34,0.57,0.6,1.19,0.78,1.85
			c0.19,0.66,0.28,1.35,0.28,2.06c0,0.71-0.09,1.39-0.28,2.05c-0.18,0.66-0.45,1.28-0.78,1.85c-0.34,0.57-0.74,1.09-1.21,1.56
			c-0.47,0.47-1,0.88-1.57,1.21c-0.57,0.34-1.19,0.6-1.85,0.78c-0.66,0.18-1.35,0.28-2.06,0.28c-0.71,0-1.4-0.09-2.06-0.28
			c-0.66-0.19-1.27-0.45-1.85-0.78c-0.57-0.34-1.1-0.74-1.57-1.21c-0.47-0.47-0.88-0.99-1.21-1.56c-0.34-0.57-0.6-1.19-0.78-1.84
			C209.51,89.07,209.42,88.39,209.42,87.67z M210.84,87.67c0,0.91,0.17,1.76,0.49,2.55c0.33,0.79,0.77,1.48,1.34,2.06
			c0.57,0.58,1.24,1.04,2.01,1.38c0.77,0.34,1.6,0.5,2.49,0.5c0.89,0,1.72-0.17,2.5-0.5c0.78-0.34,1.45-0.8,2.03-1.38
			c0.57-0.59,1.02-1.27,1.35-2.06c0.33-0.79,0.5-1.64,0.5-2.55c0-0.61-0.08-1.19-0.23-1.75c-0.15-0.56-0.36-1.08-0.64-1.57
			c-0.27-0.49-0.6-0.92-0.99-1.32c-0.39-0.4-0.82-0.74-1.29-1.02c-0.47-0.28-0.97-0.5-1.52-0.66c-0.55-0.15-1.12-0.23-1.71-0.23
			s-1.16,0.08-1.7,0.23c-0.54,0.16-1.05,0.37-1.52,0.66c-0.47,0.28-0.89,0.62-1.28,1.02c-0.38,0.4-0.71,0.83-0.98,1.32
			c-0.27,0.49-0.48,1.01-0.63,1.57C210.91,86.48,210.84,87.06,210.84,87.67z M215.99,88.94v3.41h-2.25v-9.42h3.37
			c1.31,0,2.27,0.23,2.88,0.7c0.61,0.47,0.91,1.14,0.91,2.02c0,0.62-0.16,1.16-0.48,1.63c-0.32,0.46-0.82,0.81-1.5,1.02
			c0.16,0.09,0.29,0.21,0.4,0.34c0.11,0.14,0.21,0.3,0.31,0.48l1.9,3.22h-2.16c-0.31,0-0.54-0.12-0.66-0.35l-1.51-2.76
			c-0.07-0.1-0.15-0.17-0.23-0.22c-0.09-0.05-0.22-0.08-0.4-0.08H215.99z M215.99,87.34h0.93c0.36,0,0.65-0.03,0.88-0.09
			c0.23-0.06,0.41-0.15,0.54-0.27c0.13-0.12,0.22-0.26,0.27-0.44c0.05-0.17,0.07-0.37,0.07-0.6c0-0.22-0.02-0.41-0.06-0.57
			c-0.04-0.17-0.12-0.3-0.24-0.41c-0.12-0.11-0.28-0.19-0.48-0.24c-0.21-0.05-0.47-0.08-0.79-0.08h-1.12V87.34z"/>
	</g>
	<linearGradient id="SVGID_1_" gradientUnits="userSpaceOnUse" x1="183.0418" y1="183.9597" x2="183.0418" y2="35.1242">
		<stop  offset="0" style="stop-color:#326DB4"/>
		<stop  offset="1" style="stop-color:#14C2F3"/>
	</linearGradient>
	<path class="st2" d="M222.41,123.69l-4.58,9.45l-9.22-6.97c0.04,0.63,0.1,1.26,0.1,1.9c0,18.75-15.2,33.95-33.95,33.95
		c-10.75,0-20.32-5.01-26.54-12.81c-0.38,2.97-1.07,5.96-2.04,8.57c-0.67,1.8-1.67,4.27-2.72,6.48c8.4,7.27,19.32,11.7,31.3,11.7
		c26.44,0,47.88-21.44,47.88-47.88C222.63,126.6,222.54,125.14,222.41,123.69z"/>
	<linearGradient id="SVGID_2_" gradientUnits="userSpaceOnUse" x1="58.3538" y1="183.9597" x2="58.3538" y2="35.1237">
		<stop  offset="0" style="stop-color:#326DB4"/>
		<stop  offset="1" style="stop-color:#14C2F3"/>
	</linearGradient>
	<path class="st3" d="M79.79,154.4c-0.82,1.33-1.74,2.57-2.84,3.65c-1.79,1.74-3.91,3.13-6.35,4.17c-2.44,1.04-5.02,1.56-7.72,1.56
		c-3.93,0-7.55-1.05-10.86-3.14c-1.83-1.22-3.42-2.7-4.78-4.45c-1.35-1.75-2.38-3.66-3.08-5.76c-0.26-0.87-0.39-1.83-0.39-2.88
		h-0.39h-12.3c0.61,5.06,2.24,9.65,4.91,13.76c2.66,4.11,6.04,7.45,10.14,10c5.15,3.18,10.73,4.76,16.75,4.76
		c4.45,0,8.62-0.83,12.5-2.49c3.88-1.66,7.26-3.93,10.14-6.8c0.04-0.04,0.07-0.08,0.11-0.12c-0.7-0.8-1.38-1.62-1.95-2.55
		C81.87,161.19,80.6,157.86,79.79,154.4z"/>
	<linearGradient id="SVGID_3_" gradientUnits="userSpaceOnUse" x1="128.7327" y1="183.9597" x2="128.7327" y2="35.1245">
		<stop  offset="0" style="stop-color:#326DB4"/>
		<stop  offset="1" style="stop-color:#14C2F3"/>
	</linearGradient>
	<path class="st4" d="M143.2,140.54c-0.28-1.45-0.68-2.86-1.18-4.23c-0.16-0.44-0.32-0.88-0.5-1.31c-0.46-2.24-0.71-4.55-0.71-6.92
		c0-18.75,15.2-33.95,33.95-33.95c15.95,0,29.3,11.02,32.93,25.85l0.11-0.03l-0.02,0.05l8.79,6.16l4.52-9.69l0.06-0.02
		c-5.2-20.82-23.97-36.26-46.4-36.26c-22.95,0-42.1,16.15-46.77,37.71c-0.13,0.59-0.22,1.19-0.33,1.78
		c-0.03,0.16-0.05,0.32-0.07,0.48c-0.12,0.7-0.23,1.39-0.32,2.1c-0.16,1.39-0.27,2.8-0.31,4.22c0,0.07-0.01,0.14-0.01,0.22
		c-0.01,0.46-0.07,0.91-0.07,1.38c0,2.58,0.26,5.09,0.65,7.55c0.05,0.31,0.06,0.62,0.11,0.93c0.08,0.5,0.14,0.92,0.19,1.32
		c0.04,0.08,0.09,0.16,0.13,0.25c0.41,1.9,0.95,3.74,1.58,5.55c0.09,0.79,0.21,1.56,0.21,2.39c0,2.53-0.44,4.86-1.31,7
		c-0.87,2.14-2.05,3.99-3.53,5.56c-1.48,1.57-3.21,2.79-5.17,3.66c-1.96,0.87-4.08,1.31-6.35,1.31c-2.27,0-4.41-0.44-6.41-1.31
		c-2.01-0.87-3.78-2.1-5.3-3.66c-1.53-1.57-2.73-3.42-3.6-5.56c-0.87-2.14-1.31-4.47-1.31-7c0-2.53,0.43-4.86,1.31-7
		c0.87-2.14,2.07-3.99,3.6-5.56c1.52-1.57,3.29-2.81,5.3-3.73c2.01-0.92,4.14-1.37,6.41-1.37c2.27,0,4.38,0.46,6.35,1.37
		c1.46,0.68,2.74,1.61,3.94,2.65c-0.43-2.81-0.49-5.7-0.26-8.44c0.15-1.83,0.52-3.87,0.98-5.79c-3.51-1.38-7.26-2.1-11.27-2.1h-1.05
		l24.08-36.12h-10.34h-4.71h-0.13l-17.54,26.3l-13.76,20.47c-2.41-3.73-5.43-6.86-9.13-9.3c-2.27-1.48-4.8-2.7-7.59-3.66
		l22.57-33.77H36.31v11.39h38.03L51,126.35c2.96-1.39,8.91-2.09,11.88-2.09c2.7,0,5.28,0.52,7.72,1.57
		c2.44,1.05,4.56,2.46,6.35,4.24c1.79,1.78,3.21,3.89,4.25,6.32c1.05,2.44,1.57,5,1.57,7.7c0,0.38-0.03,0.74-0.05,1.11
		c0.03,0.02,0.07,0.05,0.11,0.07c-0.01,0.32-0.07,0.61-0.07,0.93c0,4.1,0.79,7.94,2.36,11.52c0.9,2.04,2.01,3.93,3.29,5.69
		c0.32,0.44,0.64,0.88,0.99,1.3c0.69,0.84,1.41,1.66,2.2,2.44c2.75,2.7,5.98,4.84,9.69,6.41c3.71,1.57,7.66,2.36,11.84,2.36
		c4.27,0,8.26-0.79,11.98-2.36c3.71-1.57,6.94-3.71,9.68-6.41c1.22-1.2,2.31-2.5,3.31-3.87c0.6-0.83,1.17-1.69,1.69-2.58
		c0.56-0.96,1.09-1.94,1.55-2.98c1.61-3.57,2.42-7.41,2.42-11.52C143.75,144.25,143.55,142.37,143.2,140.54z"/>
</g>
<g>
	<circle class="st5" cx="1.04" cy="202.27" r="1.04"/>
	<circle class="st5" cx="7.16" cy="202.27" r="1.04"/>
	<circle class="st5" cx="13.28" cy="202.27" r="1.04"/>
	<circle class="st5" cx="19.4" cy="202.27" r="1.04"/>
	<circle class="st5" cx="25.53" cy="202.27" r="1.04"/>
	<circle class="st5" cx="31.65" cy="202.27" r="1.04"/>
	<circle class="st5" cx="37.77" cy="202.27" r="1.04"/>
	<circle class="st5" cx="43.89" cy="202.27" r="1.04"/>
	<circle class="st5" cx="50.02" cy="202.27" r="1.04"/>
	<circle class="st5" cx="56.14" cy="202.27" r="1.04"/>
	<circle class="st5" cx="62.26" cy="202.27" r="1.04"/>
	<circle class="st5" cx="68.38" cy="202.27" r="1.04"/>
	<circle class="st5" cx="74.5" cy="202.27" r="1.04"/>
	<circle class="st5" cx="80.63" cy="202.27" r="1.04"/>
	<circle class="st5" cx="86.75" cy="202.27" r="1.04"/>
	<circle class="st5" cx="92.87" cy="202.27" r="1.04"/>
	<circle class="st5" cx="98.99" cy="202.27" r="1.04"/>
	<circle class="st5" cx="105.12" cy="202.27" r="1.04"/>
	<circle class="st5" cx="111.24" cy="202.27" r="1.04"/>
	<circle class="st5" cx="117.36" cy="202.27" r="1.04"/>
	<circle class="st5" cx="123.48" cy="202.27" r="1.04"/>
	<circle class="st5" cx="1.04" cy="208.13" r="1.04"/>
	<circle class="st5" cx="7.16" cy="208.13" r="1.04"/>
	<circle class="st5" cx="13.28" cy="208.13" r="1.04"/>
	<circle class="st5" cx="19.4" cy="208.13" r="1.04"/>
	<circle class="st5" cx="25.53" cy="208.13" r="1.04"/>
	<circle class="st5" cx="31.65" cy="208.13" r="1.04"/>
	<circle class="st5" cx="37.77" cy="208.13" r="1.04"/>
	<circle class="st5" cx="43.89" cy="208.13" r="1.04"/>
	<circle class="st5" cx="50.02" cy="208.13" r="1.04"/>
	<circle class="st5" cx="56.14" cy="208.13" r="1.04"/>
	<circle class="st5" cx="62.26" cy="208.13" r="1.04"/>
	<circle class="st5" cx="68.38" cy="208.13" r="1.04"/>
	<circle class="st5" cx="74.5" cy="208.13" r="1.04"/>
	<circle class="st5" cx="80.63" cy="208.13" r="1.04"/>
	<circle class="st5" cx="86.75" cy="208.13" r="1.04"/>
	<circle class="st5" cx="92.87" cy="208.13" r="1.04"/>
	<circle class="st5" cx="98.99" cy="208.13" r="1.04"/>
	<circle class="st5" cx="105.12" cy="208.13" r="1.04"/>
	<circle class="st5" cx="111.24" cy="208.13" r="1.04"/>
	<circle class="st5" cx="117.36" cy="208.13" r="1.04"/>
	<circle class="st5" cx="123.48" cy="208.13" r="1.04"/>
	<circle class="st5" cx="1.04" cy="213.98" r="1.04"/>
	<circle class="st5" cx="7.16" cy="213.98" r="1.04"/>
	<circle class="st5" cx="13.28" cy="213.98" r="1.04"/>
	<circle class="st5" cx="19.4" cy="213.98" r="1.04"/>
	<circle class="st5" cx="25.53" cy="213.98" r="1.04"/>
	<circle class="st5" cx="31.65" cy="213.98" r="1.04"/>
	<circle class="st5" cx="37.77" cy="213.98" r="1.04"/>
	<circle class="st5" cx="43.89" cy="213.98" r="1.04"/>
	<circle class="st5" cx="50.02" cy="213.98" r="1.04"/>
	<circle class="st5" cx="56.14" cy="213.98" r="1.04"/>
	<circle class="st5" cx="62.26" cy="213.98" r="1.04"/>
	<circle class="st5" cx="68.38" cy="213.98" r="1.04"/>
	<circle class="st5" cx="74.5" cy="213.98" r="1.04"/>
	<circle class="st5" cx="80.63" cy="213.98" r="1.04"/>
	<circle class="st5" cx="86.75" cy="213.98" r="1.04"/>
	<circle class="st5" cx="92.87" cy="213.98" r="1.04"/>
	<circle class="st5" cx="98.99" cy="213.98" r="1.04"/>
	<circle class="st5" cx="105.12" cy="213.98" r="1.04"/>
	<circle class="st5" cx="111.24" cy="213.98" r="1.04"/>
	<circle class="st5" cx="117.36" cy="213.98" r="1.04"/>
	<circle class="st5" cx="123.48" cy="213.98" r="1.04"/>
	<circle class="st5" cx="1.04" cy="219.84" r="1.04"/>
	<circle class="st5" cx="7.16" cy="219.84" r="1.04"/>
	<circle class="st5" cx="13.28" cy="219.84" r="1.04"/>
	<circle class="st5" cx="19.4" cy="219.84" r="1.04"/>
	<circle class="st5" cx="25.53" cy="219.84" r="1.04"/>
	<circle class="st5" cx="31.65" cy="219.84" r="1.04"/>
	<circle class="st5" cx="37.77" cy="219.84" r="1.04"/>
	<circle class="st5" cx="43.89" cy="219.84" r="1.04"/>
	<circle class="st5" cx="50.02" cy="219.84" r="1.04"/>
	<circle class="st5" cx="56.14" cy="219.84" r="1.04"/>
	<circle class="st5" cx="62.26" cy="219.84" r="1.04"/>
	<circle class="st5" cx="68.38" cy="219.84" r="1.04"/>
	<circle class="st5" cx="74.5" cy="219.84" r="1.04"/>
	<circle class="st5" cx="80.63" cy="219.84" r="1.04"/>
	<circle class="st5" cx="86.75" cy="219.84" r="1.04"/>
	<circle class="st5" cx="92.87" cy="219.84" r="1.04"/>
	<circle class="st5" cx="98.99" cy="219.84" r="1.04"/>
	<circle class="st5" cx="105.12" cy="219.84" r="1.04"/>
	<circle class="st5" cx="111.24" cy="219.84" r="1.04"/>
	<circle class="st5" cx="117.36" cy="219.84" r="1.04"/>
	<circle class="st5" cx="123.48" cy="219.84" r="1.04"/>
	<circle class="st5" cx="1.04" cy="225.69" r="1.04"/>
	<circle class="st5" cx="7.16" cy="225.69" r="1.04"/>
	<circle class="st5" cx="13.28" cy="225.69" r="1.04"/>
	<circle class="st5" cx="19.4" cy="225.69" r="1.04"/>
	<circle class="st5" cx="25.53" cy="225.69" r="1.04"/>
	<circle class="st5" cx="31.65" cy="225.69" r="1.04"/>
	<circle class="st5" cx="37.77" cy="225.69" r="1.04"/>
	<circle class="st5" cx="43.89" cy="225.69" r="1.04"/>
	<circle class="st5" cx="50.02" cy="225.69" r="1.04"/>
	<circle class="st5" cx="56.14" cy="225.69" r="1.04"/>
	<circle class="st5" cx="62.26" cy="225.69" r="1.04"/>
	<circle class="st5" cx="68.38" cy="225.69" r="1.04"/>
	<circle class="st5" cx="74.5" cy="225.69" r="1.04"/>
	<circle class="st5" cx="80.63" cy="225.69" r="1.04"/>
	<circle class="st5" cx="86.75" cy="225.69" r="1.04"/>
	<circle class="st5" cx="92.87" cy="225.69" r="1.04"/>
	<circle class="st5" cx="98.99" cy="225.69" r="1.04"/>
	<circle class="st5" cx="105.12" cy="225.69" r="1.04"/>
	<circle class="st5" cx="111.24" cy="225.69" r="1.04"/>
	<circle class="st5" cx="117.36" cy="225.69" r="1.04"/>
	<circle class="st5" cx="123.48" cy="225.69" r="1.04"/>
	<circle class="st5" cx="1.04" cy="231.54" r="1.04"/>
	<circle class="st5" cx="7.16" cy="231.54" r="1.04"/>
	<circle class="st5" cx="13.28" cy="231.54" r="1.04"/>
	<circle class="st5" cx="19.4" cy="231.54" r="1.04"/>
	<circle class="st5" cx="25.53" cy="231.54" r="1.04"/>
	<circle class="st5" cx="31.65" cy="231.54" r="1.04"/>
	<circle class="st5" cx="37.77" cy="231.54" r="1.04"/>
	<circle class="st5" cx="43.89" cy="231.54" r="1.04"/>
	<circle class="st5" cx="50.02" cy="231.54" r="1.04"/>
	<circle class="st5" cx="56.14" cy="231.54" r="1.04"/>
	<circle class="st5" cx="62.26" cy="231.54" r="1.04"/>
	<circle class="st5" cx="68.38" cy="231.54" r="1.04"/>
	<circle class="st5" cx="74.5" cy="231.54" r="1.04"/>
	<circle class="st5" cx="80.63" cy="231.54" r="1.04"/>
	<circle class="st5" cx="86.75" cy="231.54" r="1.04"/>
	<circle class="st5" cx="92.87" cy="231.54" r="1.04"/>
	<circle class="st5" cx="98.99" cy="231.54" r="1.04"/>
	<circle class="st5" cx="105.12" cy="231.54" r="1.04"/>
	<circle class="st5" cx="111.24" cy="231.54" r="1.04"/>
	<circle class="st5" cx="117.36" cy="231.54" r="1.04"/>
	<circle class="st5" cx="123.48" cy="231.54" r="1.04"/>
	<circle class="st5" cx="1.04" cy="237.4" r="1.04"/>
	<circle class="st5" cx="7.16" cy="237.4" r="1.04"/>
	<circle class="st5" cx="13.28" cy="237.4" r="1.04"/>
	<circle class="st5" cx="19.4" cy="237.4" r="1.04"/>
	<circle class="st5" cx="25.53" cy="237.4" r="1.04"/>
	<circle class="st5" cx="31.65" cy="237.4" r="1.04"/>
	<circle class="st5" cx="37.77" cy="237.4" r="1.04"/>
	<circle class="st5" cx="43.89" cy="237.4" r="1.04"/>
	<circle class="st5" cx="50.02" cy="237.4" r="1.04"/>
	<circle class="st5" cx="56.14" cy="237.4" r="1.04"/>
	<circle class="st5" cx="62.26" cy="237.4" r="1.04"/>
	<circle class="st5" cx="68.38" cy="237.4" r="1.04"/>
	<circle class="st5" cx="74.5" cy="237.4" r="1.04"/>
	<circle class="st5" cx="80.63" cy="237.4" r="1.04"/>
	<circle class="st5" cx="86.75" cy="237.4" r="1.04"/>
	<circle class="st5" cx="92.87" cy="237.4" r="1.04"/>
	<circle class="st5" cx="98.99" cy="237.4" r="1.04"/>
	<circle class="st5" cx="105.12" cy="237.4" r="1.04"/>
	<circle class="st5" cx="111.24" cy="237.4" r="1.04"/>
	<circle class="st5" cx="117.36" cy="237.4" r="1.04"/>
	<circle class="st5" cx="123.48" cy="237.4" r="1.04"/>
	<circle class="st5" cx="1.04" cy="243.25" r="1.04"/>
	<circle class="st5" cx="7.16" cy="243.25" r="1.04"/>
	<circle class="st5" cx="13.28" cy="243.25" r="1.04"/>
	<circle class="st5" cx="19.4" cy="243.25" r="1.04"/>
	<circle class="st5" cx="25.53" cy="243.25" r="1.04"/>
	<circle class="st5" cx="31.65" cy="243.25" r="1.04"/>
	<circle class="st5" cx="37.77" cy="243.25" r="1.04"/>
	<circle class="st5" cx="43.89" cy="243.25" r="1.04"/>
	<circle class="st5" cx="50.02" cy="243.25" r="1.04"/>
	<circle class="st5" cx="56.14" cy="243.25" r="1.04"/>
	<circle class="st5" cx="62.26" cy="243.25" r="1.04"/>
	<circle class="st5" cx="68.38" cy="243.25" r="1.04"/>
	<circle class="st5" cx="74.5" cy="243.25" r="1.04"/>
	<circle class="st5" cx="80.63" cy="243.25" r="1.04"/>
	<circle class="st5" cx="86.75" cy="243.25" r="1.04"/>
	<circle class="st5" cx="92.87" cy="243.25" r="1.04"/>
	<circle class="st5" cx="98.99" cy="243.25" r="1.04"/>
	<circle class="st5" cx="105.12" cy="243.25" r="1.04"/>
	<circle class="st5" cx="111.24" cy="243.25" r="1.04"/>
	<circle class="st5" cx="117.36" cy="243.25" r="1.04"/>
	<circle class="st5" cx="123.48" cy="243.25" r="1.04"/>
	<circle class="st5" cx="1.04" cy="249.11" r="1.04"/>
	<circle class="st5" cx="7.16" cy="249.11" r="1.04"/>
	<circle class="st5" cx="13.28" cy="249.11" r="1.04"/>
	<circle class="st5" cx="19.4" cy="249.11" r="1.04"/>
	<circle class="st5" cx="25.53" cy="249.11" r="1.04"/>
	<circle class="st5" cx="31.65" cy="249.11" r="1.04"/>
	<circle class="st5" cx="37.77" cy="249.11" r="1.04"/>
	<circle class="st5" cx="43.89" cy="249.11" r="1.04"/>
	<circle class="st5" cx="50.02" cy="249.11" r="1.04"/>
	<circle class="st5" cx="56.14" cy="249.11" r="1.04"/>
	<circle class="st5" cx="62.26" cy="249.11" r="1.04"/>
	<circle class="st5" cx="68.38" cy="249.11" r="1.04"/>
	<circle class="st5" cx="74.5" cy="249.11" r="1.04"/>
	<circle class="st5" cx="80.63" cy="249.11" r="1.04"/>
	<circle class="st5" cx="86.75" cy="249.11" r="1.04"/>
	<circle class="st5" cx="92.87" cy="249.11" r="1.04"/>
	<circle class="st5" cx="98.99" cy="249.11" r="1.04"/>
	<circle class="st5" cx="105.12" cy="249.11" r="1.04"/>
	<circle class="st5" cx="111.24" cy="249.11" r="1.04"/>
	<circle class="st5" cx="117.36" cy="249.11" r="1.04"/>
	<circle class="st5" cx="123.48" cy="249.11" r="1.04"/>
	<circle class="st5" cx="1.04" cy="254.96" r="1.04"/>
	<circle class="st5" cx="7.16" cy="254.96" r="1.04"/>
	<circle class="st5" cx="13.28" cy="254.96" r="1.04"/>
	<circle class="st5" cx="19.4" cy="254.96" r="1.04"/>
	<circle class="st5" cx="25.53" cy="254.96" r="1.04"/>
	<circle class="st5" cx="31.65" cy="254.96" r="1.04"/>
	<circle class="st5" cx="37.77" cy="254.96" r="1.04"/>
	<circle class="st5" cx="43.89" cy="254.96" r="1.04"/>
	<circle class="st5" cx="50.02" cy="254.96" r="1.04"/>
	<circle class="st5" cx="56.14" cy="254.96" r="1.04"/>
	<circle class="st5" cx="62.26" cy="254.96" r="1.04"/>
	<circle class="st5" cx="68.38" cy="254.96" r="1.04"/>
	<circle class="st5" cx="74.5" cy="254.96" r="1.04"/>
	<circle class="st5" cx="80.63" cy="254.96" r="1.04"/>
	<circle class="st5" cx="86.75" cy="254.96" r="1.04"/>
	<circle class="st5" cx="92.87" cy="254.96" r="1.04"/>
	<circle class="st5" cx="98.99" cy="254.96" r="1.04"/>
	<circle class="st5" cx="105.12" cy="254.96" r="1.04"/>
	<circle class="st5" cx="111.24" cy="254.96" r="1.04"/>
	<circle class="st5" cx="117.36" cy="254.96" r="1.04"/>
	<circle class="st5" cx="123.48" cy="254.96" r="1.04"/>
</g>
</svg>
